PathFileType	4	(X/Y/Z)	/Users/itak/Documents/Research/Walk-IL/dataset/trc/00510_00183.trc
DataRate	CameraRate	NumFrames	NumMarkers	Units	OrigDataRate	OrigDataStartFrame	OrigNumFrames
100.000000	100.000000	4	53	mm	100.000000	143	382
Frame#	Time	RPSI			LPSI			L3			STRN			T10			C7			CLAV			RBAK			LBAK			LSHO			LUPA			LAEL			LAOL			LWTS			LWPS			LFRA			LIFD			LHPS			LHTS			RSHO			RUPA			RAEL			RAOL			RWTS			RWPS			RFRA			RIFD			RHTS			RBHD			LFHD			RFHD			LBHD			LHIP			RHIP			RASI			LASI			LKNE			LTHI			LANK			LTIP			LTOE			LMT1			LMT5			LHEE			RKNE			RTHI			RANK			RTIP			RTOE			RMT1			RMT5			RHEE			RHPS			
		X1	Y1	Z1	X2	Y2	Z2	X3	Y3	Z3	X4	Y4	Z4	X5	Y5	Z5	X6	Y6	Z6	X7	Y7	Z7	X8	Y8	Z8	X9	Y9	Z9	X10	Y10	Z10	X11	Y11	Z11	X12	Y12	Z12	X13	Y13	Z13	X14	Y14	Z14	X15	Y15	Z15	X16	Y16	Z16	X17	Y17	Z17	X18	Y18	Z18	X19	Y19	Z19	X20	Y20	Z20	X21	Y21	Z21	X22	Y22	Z22	X23	Y23	Z23	X24	Y24	Z24	X25	Y25	Z25	X26	Y26	Z26	X27	Y27	Z27	X28	Y28	Z28	X29	Y29	Z29	X30	Y30	Z30	X31	Y31	Z31	X32	Y32	Z32	X33	Y33	Z33	X34	Y34	Z34	X35	Y35	Z35	X36	Y36	Z36	X37	Y37	Z37	X38	Y38	Z38	X39	Y39	Z39	X40	Y40	Z40	X41	Y41	Z41	X42	Y42	Z42	X43	Y43	Z43	X44	Y44	Z44	X45	Y45	Z45	X46	Y46	Z46	X47	Y47	Z47	X48	Y48	Z48	X49	Y49	Z49	X50	Y50	Z50	X51	Y51	Z51	X52	Y52	Z52	X53	Y53	Z53	

144	1.43	-811.9051513671875	982.153076171875	-289.0563659667969	-745.9976806640625	980.705322265625	-393.7556762695312	-761.927978515625	1049.926147460938	-366.8168029785156	-562.4514770507812	1179.90576171875	-239.4503326416016	-763.3956909179688	1155.406860351562	-385.9214782714844	-689.5859985351562	1371.857421875	-350.5833129882812	-579.714599609375	1279.460205078125	-256.7939758300781	-798.779541015625	1268.195922851562	-326.3571472167969	-662.5534057617188	1318.260498046875	-438.4236755371094	-538.9197387695312	1348.6279296875	-431.8964538574219	-520.4561157226562	1219.180908203125	-484.7058715820312	-505.689453125	1046.639892578125	-468.2395629882812	-592.4381713867188	991.0934448242188	-478.0578308105469	-441.2819519042969	1077.743041992188	-282.0908813476562	-427.7825927734375	982.9881591796875	-279.1472778320312	-472.673583984375	1034.67822265625	-409.745849609375	-374.3236999511719	1036.115356445312	-145.1370239257812	-393.1046142578125	990.6386108398438	-234.2202758789062	-384.9209289550781	1056.469970703125	-229.1192932128906	-739.3880004882812	1368.505493164062	-204.8062744140625	-806.3512573242188	1328.7705078125	-192.217529296875	-953.565185546875	1122.3369140625	-245.0834808349609	-947.9718017578125	1105.698486328125	-309.6007385253906	-903.2708129882812	924.7577514648438	-139.5662689208984	-986.5814208984375	915.3313598632812	-174.3109588623047	-969.0111083984375	1072.603881835938	-234.5534973144531	-942.1865844726562	770.0127563476562	-124.590446472168	-939.2631225585938	838.530029296875	-100.3493804931641	-706.4151000976562	1515.38720703125	-261.6701965332031	-526.5841674804688	1579.053588867188	-322.33740234375	-595.18994140625	1581.426147460938	-214.9522094726562	-632.8297729492188	1507.513793945312	-403.6004028320312	-611.4174194335938	887.6610717773438	-473.1673278808594	-774.8670654296875	871.88232421875	-130.9040679931641	-660.2131958007812	904.2876586914062	-152.9243469238281	-553.8162231445312	905.200927734375	-367.3916625976562	-704.3746948242188	470.7013549804688	-480.5252685546875	-645.5822143554688	621.6202392578125	-470.1050720214844	-982.007080078125	159.0059204101562	-658.9065551757812	-786.1098022460938	355.4142761230469	-543.1226806640625	-984.45703125	32.40452575683594	-524.5275268554688	-1010.878723144531	88.92107391357422	-530.828125	-964.6322021484375	57.50837326049805	-621.7258911132812	-1020.148986816406	216.0823974609375	-627.6593017578125	-660.1056518554688	492.6422119140625	-177.0315093994141	-732.682861328125	743.0352172851562	-123.9472427368164	-831.9666137695312	128.4007415771484	-347.3184509277344	-672.7847900390625	353.4747619628906	-214.5775604248047	-661.2327270507812	49.18316268920898	-292.9621887207031	-685.9459228515625	74.44068908691406	-355.125732421875	-756.89599609375	71.59911346435547	-288.3526611328125	-849.1881103515625	151.4570465087891	-411.8635559082031	-994.6431884765625	847.5648803710938	-144.3154296875	
145	1.44	-799.96533203125	979.992431640625	-280.6353454589844	-736.2186889648438	979.2962036132812	-386.529541015625	-751.25634765625	1048.00830078125	-358.2255249023438	-551.1824340820312	1177.206298828125	-232.7235717773438	-752.9537963867188	1153.28173828125	-376.7789916992188	-678.9784545898438	1369.544921875	-342.8485717773438	-568.7305908203125	1276.84716796875	-249.8968658447266	-788.59033203125	1265.661376953125	-317.718505859375	-652.8871459960938	1316.23193359375	-431.1078186035156	-528.9867553710938	1345.31494140625	-425.3032836914062	-512.2833862304688	1216.143310546875	-479.0304260253906	-499.1798400878906	1042.5224609375	-464.5522766113281	-587.2219848632812	989.3358154296875	-474.4712829589844	-432.0056457519531	1066.377075195312	-278.1284484863281	-420.9856262207031	971.3471069335938	-277.9805908203125	-465.8522644042969	1028.042236328125	-406.6555786132812	-364.1532897949219	1018.980651855469	-143.5577545166016	-385.7116394042969	976.805419921875	-233.1699676513672	-375.7375793457031	1042.299560546875	-226.5301055908203	-727.777099609375	1365.632934570312	-196.5421905517578	-794.4973754882812	1325.81787109375	-182.9666290283203	-940.90869140625	1118.869140625	-232.4443359375	-937.7932739257812	1101.7724609375	-297.0048522949219	-882.3240966796875	922.935546875	-127.9489669799805	-967.3590698242188	912.6791381835938	-157.5809020996094	-955.0191650390625	1069.073608398438	-220.6901397705078	-920.4314575195312	768.2191162109375	-108.0486450195312	-915.7785034179688	837.2252807617188	-85.50969696044922	-695.9755859375	1512.565063476562	-255.2635345458984	-516.6548461914062	1576.490234375	-316.9756164550781	-584.9761352539062	1579.538208007812	-209.4473724365234	-622.8875732421875	1503.623168945312	-397.1690063476562	-601.1344604492188	886.3110961914062	-466.9045715332031	-762.8339233398438	868.01513671875	-124.1473007202148	-648.4703369140625	900.9038696289062	-146.7226867675781	-542.955078125	903.6972045898438	-361.4859924316406	-683.9990234375	465.50830078125	-472.3637390136719	-630.087158203125	618.8306884765625	-463.1898498535156	-967.835205078125	165.0877990722656	-656.1272583007812	-766.9536743164062	352.77880859375	-536.4046020507812	-977.5713500976562	31.45328330993652	-524.97509765625	-1000.077697753906	93.13336944580078	-529.8998413085938	-956.60302734375	61.4428596496582	-621.7557373046875	-1002.49072265625	223.4145660400391	-623.1326293945312	-658.2518920898438	486.2114868164062	-176.7704925537109	-723.2235107421875	737.9646606445312	-118.9385070800781	-830.1157836914062	122.4452896118164	-350.6389465332031	-671.9265747070312	346.6123657226562	-216.0787353515625	-660.3369140625	44.99714279174805	-294.9083557128906	-683.9049072265625	68.37303924560547	-357.2084045410156	-755.2705078125	65.85758972167969	-291.2348937988281	-846.7601318359375	145.900390625	-415.3187866210938	-973.6111450195312	845.7236938476562	-126.1829528808594	
146	1.45	-788.4531860351562	976.7093505859375	-272.689453125	-726.7872924804688	976.6353149414062	-379.7596740722656	-740.8936157226562	1045.074340820312	-349.9093322753906	-539.8453369140625	1173.383178710938	-226.1658630371094	-742.767578125	1150.269897460938	-367.5819091796875	-668.3060302734375	1366.216796875	-334.8049621582031	-557.59521484375	1273.111450195312	-243.0732727050781	-778.22802734375	1262.147216796875	-308.7888488769531	-643.3673095703125	1313.269287109375	-423.5364074707031	-519.098388671875	1341.061767578125	-418.8039245605469	-504.3753356933594	1212.103515625	-473.3997192382812	-493.0068664550781	1037.412353515625	-461.1096496582031	-582.3394775390625	986.7548828125	-470.8003234863281	-422.1924743652344	1053.27001953125	-275.1298217773438	-414.0281677246094	958.0974731445312	-278.0933837890625	-459.1880798339844	1020.159973144531	-404.1567077636719	-353.4490051269531	999.302001953125	-143.6680755615234	-378.0325622558594	961.1040649414062	-233.6338958740234	-366.019775390625	1026.037475585938	-225.2565307617188	-715.9090576171875	1361.76806640625	-187.8763275146484	-782.3563842773438	1321.69482421875	-173.0644989013672	-927.8298950195312	1114.06005859375	-218.2506408691406	-927.7361450195312	1096.491821289062	-282.7461547851562	-859.8139038085938	920.4364624023438	-115.6200561523438	-946.512939453125	909.1058349609375	-139.3114013671875	-940.4434814453125	1064.225952148438	-205.2533874511719	-896.046630859375	765.7760620117188	-90.42008972167969	-889.917236328125	835.2672729492188	-69.81607055664062	-685.3278198242188	1508.833251953125	-248.6241302490234	-506.5891723632812	1572.998291015625	-311.612548828125	-574.5606079101562	1576.8818359375	-203.9233093261719	-612.8045043945312	1498.583129882812	-390.5107421875	-591.0587768554688	883.698974609375	-460.85400390625	-751.4647216796875	863.1566162109375	-117.7531356811523	-637.1824340820312	896.4894409179688	-140.754638671875	-532.338623046875	901.1502075195312	-355.8245239257812	-662.3740234375	459.20947265625	-463.6041870117188	-613.9529418945312	614.8604736328125	-455.9377136230469	-953.3870239257812	171.9936676025391	-652.4844360351562	-746.7424926757812	349.5829467773438	-529.0947265625	-968.143798828125	30.9312686920166	-525.6375732421875	-987.2989501953125	97.32633972167969	-528.4029541015625	-947.249755859375	66.60445404052734	-621.7315673828125	-984.9375	230.8334045410156	-617.2380981445312	-656.5023803710938	479.3865356445312	-176.6939392089844	-714.3717651367188	732.0425415039062	-114.2839584350586	-829.6473388671875	117.2490844726562	-353.8666076660156	-671.4384155273438	339.7406005859375	-217.7195892333984	-660.4332275390625	42.14658355712891	-296.8514709472656	-683.1382446289062	63.56745910644531	-359.3617248535156	-754.7283325195312	61.330810546875	-293.9285278320312	-845.9713134765625	141.0084075927734	-418.6465759277344	-950.3525390625	842.99267578125	-106.5908126831055	
147	1.46	-777.51513671875	972.3660888671875	-265.4092102050781	-717.5827026367188	972.6373291015625	-373.4920043945312	-730.865966796875	1041.173950195312	-341.9530944824219	-528.4857177734375	1168.516723632812	-219.7925872802734	-732.7982177734375	1146.414672851562	-358.4706726074219	-657.5535888671875	1361.953857421875	-326.4486999511719	-546.3147583007812	1268.326416015625	-236.3289489746094	-767.682861328125	1257.762451171875	-299.5505676269531	-633.9375610351562	1309.428833007812	-415.667724609375	-509.2238159179688	1335.999633789062	-412.3722839355469	-496.720458984375	1207.208251953125	-467.7972106933594	-487.2221374511719	1031.467895507812	-457.9133911132812	-577.836669921875	983.4832153320312	-467.0079650878906	-411.9643249511719	1038.664672851562	-273.2032165527344	-407.0518188476562	943.5343627929688	-279.5576477050781	-452.7466735839844	1011.223876953125	-402.2662353515625	-342.3595886230469	977.3248901367188	-145.7025756835938	-370.2439270019531	943.8396606445312	-235.7559814453125	-355.9136047363281	1007.944641113281	-225.4703674316406	-703.7891845703125	1357.00537109375	-178.8165283203125	-769.9335327148438	1316.473388671875	-162.5382080078125	-914.259521484375	1108.036010742188	-202.6843719482422	-917.6092529296875	1089.907104492188	-266.9287719726562	-835.832275390625	917.5584716796875	-102.6242599487305	-923.9306030273438	904.7791748046875	-119.7822189331055	-925.183837890625	1058.1923828125	-188.4504852294922	-868.8535766601562	763.0042114257812	-71.82958221435547	-861.729736328125	832.984130859375	-53.42039489746094	-674.458984375	1504.299438476562	-241.7028961181641	-496.3795166015625	1568.6806640625	-306.2079772949219	-563.9209594726562	1573.540893554688	-198.3307342529297	-602.560302734375	1492.541259765625	-383.6039428710938	-581.129638671875	879.80078125	-454.9947204589844	-740.8939819335938	857.4761352539062	-111.7505874633789	-626.4403076171875	891.1862182617188	-134.9566650390625	-522.032958984375	897.5859985351562	-350.3533020019531	-639.5592651367188	452.0985717773438	-454.2212219238281	-597.151123046875	609.8394775390625	-448.3195495605469	-938.4095458984375	179.7419891357422	-647.8260498046875	-725.455810546875	346.0862731933594	-521.1281127929688	-955.6640625	31.15608406066895	-526.2958374023438	-972.3096313476562	101.4682846069336	-526.1937255859375	-935.9209594726562	72.9595947265625	-621.3436279296875	-967.4795532226562	238.3215637207031	-609.961669921875	-654.6395263671875	472.3599853515625	-176.7608795166016	-706.1531372070312	725.45166015625	-109.9970550537109	-830.2548217773438	112.915397644043	-356.81591796875	-671.0183715820312	333.0491333007812	-219.4277954101562	-661.114013671875	40.49737167358398	-298.6223449707031	-683.3451538085938	60.17660903930664	-361.4543762207031	-754.9859619140625	58.11473083496094	-296.2405700683594	-846.5549926757812	136.8372192382812	-421.6583557128906	-924.7315063476562	839.5637817382812	-85.83750915527344	
